<mxfile host="app.diagrams.net" modified="2024-02-18T11:11:01.305Z" agent="Mozilla/5.0 (Windows NT 10.0; Win64; x64; rv:122.0) Gecko/20100101 Firefox/122.0" etag="5Wbl_ZTWQtDanMrIa2r6" version="23.1.5" type="device" pages="2">
  <diagram name="main" id="oFZCnTqHJ-AwW1O0C2sU">
    <mxGraphModel dx="880" dy="508" grid="1" gridSize="10" guides="1" tooltips="1" connect="1" arrows="1" fold="1" page="1" pageScale="1" pageWidth="827" pageHeight="1169" math="0" shadow="0">
      <root>
        <mxCell id="0" />
        <mxCell id="1" parent="0" />
        <mxCell id="D5HL_pNyoUC32y79jpSu-1" style="edgeStyle=orthogonalEdgeStyle;rounded=0;orthogonalLoop=1;jettySize=auto;html=1;exitX=1;exitY=0.5;exitDx=0;exitDy=0;shape=flexArrow;fillColor=#d5e8d4;gradientColor=#97d077;strokeColor=#82b366;" edge="1" parent="1" source="VPIT78rZ71s4JDjaBYaB-8" target="VPIT78rZ71s4JDjaBYaB-15">
          <mxGeometry relative="1" as="geometry" />
        </mxCell>
        <mxCell id="VPIT78rZ71s4JDjaBYaB-8" value="" style="verticalLabelPosition=bottom;verticalAlign=top;html=1;shape=process;whiteSpace=wrap;rounded=1;size=0.18421052631578946;arcSize=6;fillColor=#0050ef;fontColor=#ffffff;strokeColor=#001DBC;" vertex="1" parent="1">
          <mxGeometry x="350" y="335" width="190" height="40" as="geometry" />
        </mxCell>
        <mxCell id="VPIT78rZ71s4JDjaBYaB-1" value="аргументы &lt;br&gt;string [ ]" style="shape=parallelogram;html=1;strokeWidth=2;perimeter=parallelogramPerimeter;whiteSpace=wrap;rounded=1;arcSize=12;size=0.23;fillColor=#fff2cc;strokeColor=#d6b656;" vertex="1" parent="1">
          <mxGeometry x="120" y="160" width="120" height="40" as="geometry" />
        </mxCell>
        <mxCell id="VPIT78rZ71s4JDjaBYaB-2" value="конец" style="strokeWidth=2;html=1;shape=mxgraph.flowchart.start_2;whiteSpace=wrap;fillColor=#dae8fc;strokeColor=#6c8ebf;" vertex="1" parent="1">
          <mxGeometry x="40" y="560" width="80" height="80" as="geometry" />
        </mxCell>
        <mxCell id="wJMg5r566ONuuSXWwZkM-2" style="edgeStyle=orthogonalEdgeStyle;rounded=0;orthogonalLoop=1;jettySize=auto;html=1;exitX=1;exitY=0.5;exitDx=0;exitDy=0;exitPerimeter=0;" edge="1" parent="1" source="VPIT78rZ71s4JDjaBYaB-3" target="VPIT78rZ71s4JDjaBYaB-1">
          <mxGeometry relative="1" as="geometry" />
        </mxCell>
        <mxCell id="VPIT78rZ71s4JDjaBYaB-3" value="начало" style="strokeWidth=2;html=1;shape=mxgraph.flowchart.start_2;whiteSpace=wrap;fillColor=#dae8fc;strokeColor=#6c8ebf;" vertex="1" parent="1">
          <mxGeometry x="40" y="80" width="80" height="80" as="geometry" />
        </mxCell>
        <mxCell id="wJMg5r566ONuuSXWwZkM-6" style="edgeStyle=orthogonalEdgeStyle;rounded=0;orthogonalLoop=1;jettySize=auto;html=1;exitX=1;exitY=0.5;exitDx=0;exitDy=0;entryX=0.5;entryY=0;entryDx=0;entryDy=0;" edge="1" parent="1" source="VPIT78rZ71s4JDjaBYaB-4" target="VPIT78rZ71s4JDjaBYaB-7">
          <mxGeometry relative="1" as="geometry" />
        </mxCell>
        <mxCell id="VPIT78rZ71s4JDjaBYaB-4" value="string [ ]" style="shape=parallelogram;html=1;strokeWidth=2;perimeter=parallelogramPerimeter;whiteSpace=wrap;rounded=1;arcSize=12;size=0.23;fillColor=#fff2cc;strokeColor=#d6b656;" vertex="1" parent="1">
          <mxGeometry x="140" y="300" width="100" height="40" as="geometry" />
        </mxCell>
        <mxCell id="wJMg5r566ONuuSXWwZkM-4" style="edgeStyle=orthogonalEdgeStyle;rounded=0;orthogonalLoop=1;jettySize=auto;html=1;exitX=1;exitY=0.5;exitDx=0;exitDy=0;exitPerimeter=0;entryX=0.75;entryY=0;entryDx=0;entryDy=0;fillColor=#e51400;strokeColor=#B20000;" edge="1" parent="1" source="VPIT78rZ71s4JDjaBYaB-5" target="VPIT78rZ71s4JDjaBYaB-7">
          <mxGeometry relative="1" as="geometry" />
        </mxCell>
        <mxCell id="wJMg5r566ONuuSXWwZkM-5" style="edgeStyle=orthogonalEdgeStyle;rounded=0;orthogonalLoop=1;jettySize=auto;html=1;exitX=0;exitY=0.5;exitDx=0;exitDy=0;exitPerimeter=0;fillColor=#008a00;strokeColor=#005700;" edge="1" parent="1" source="VPIT78rZ71s4JDjaBYaB-5" target="VPIT78rZ71s4JDjaBYaB-4">
          <mxGeometry relative="1" as="geometry" />
        </mxCell>
        <mxCell id="VPIT78rZ71s4JDjaBYaB-5" value="длина аргументов &amp;lt; 1" style="strokeWidth=2;html=1;shape=mxgraph.flowchart.decision;whiteSpace=wrap;fillColor=#1ba1e2;fontColor=#ffffff;strokeColor=#006EAF;" vertex="1" parent="1">
          <mxGeometry x="240" y="200" width="150" height="100" as="geometry" />
        </mxCell>
        <mxCell id="wJMg5r566ONuuSXWwZkM-7" style="edgeStyle=orthogonalEdgeStyle;rounded=0;orthogonalLoop=1;jettySize=auto;html=1;exitX=0.5;exitY=1;exitDx=0;exitDy=0;entryX=0.5;entryY=0;entryDx=0;entryDy=0;" edge="1" parent="1" source="VPIT78rZ71s4JDjaBYaB-7" target="VPIT78rZ71s4JDjaBYaB-14">
          <mxGeometry relative="1" as="geometry" />
        </mxCell>
        <mxCell id="VPIT78rZ71s4JDjaBYaB-7" value="принт масив ()" style="rounded=1;whiteSpace=wrap;html=1;absoluteArcSize=1;arcSize=14;strokeWidth=2;fillColor=#4B00B5;strokeColor=#3700CC;fontColor=#ffffff;" vertex="1" parent="1">
          <mxGeometry x="390" y="340" width="110" height="30" as="geometry" />
        </mxCell>
        <mxCell id="wJMg5r566ONuuSXWwZkM-12" style="edgeStyle=orthogonalEdgeStyle;rounded=0;orthogonalLoop=1;jettySize=auto;html=1;exitX=0;exitY=0.5;exitDx=0;exitDy=0;exitPerimeter=0;entryX=0.5;entryY=0;entryDx=0;entryDy=0;fillColor=#e51400;strokeColor=#B20000;" edge="1" parent="1" source="VPIT78rZ71s4JDjaBYaB-9" target="VPIT78rZ71s4JDjaBYaB-11">
          <mxGeometry relative="1" as="geometry">
            <Array as="points">
              <mxPoint x="580" y="600" />
              <mxPoint x="580" y="670" />
              <mxPoint x="810" y="670" />
              <mxPoint x="810" y="370" />
              <mxPoint x="625" y="370" />
            </Array>
          </mxGeometry>
        </mxCell>
        <mxCell id="VPIT78rZ71s4JDjaBYaB-9" value="&lt;div&gt;длина&amp;nbsp;&lt;/div&gt;&lt;div&gt;string[i]&amp;nbsp;&lt;/div&gt;&lt;div&gt;&amp;lt;= 3&lt;/div&gt;" style="strokeWidth=2;html=1;shape=mxgraph.flowchart.decision;whiteSpace=wrap;fillColor=#1ba1e2;fontColor=#ffffff;strokeColor=#006EAF;" vertex="1" parent="1">
          <mxGeometry x="640" y="560" width="90" height="80" as="geometry" />
        </mxCell>
        <mxCell id="wJMg5r566ONuuSXWwZkM-13" style="edgeStyle=orthogonalEdgeStyle;rounded=0;orthogonalLoop=1;jettySize=auto;html=1;exitX=0;exitY=0.5;exitDx=0;exitDy=0;entryX=0.5;entryY=0;entryDx=0;entryDy=0;fillColor=#e51400;strokeColor=#B20000;" edge="1" parent="1" source="VPIT78rZ71s4JDjaBYaB-11" target="VPIT78rZ71s4JDjaBYaB-17">
          <mxGeometry relative="1" as="geometry" />
        </mxCell>
        <mxCell id="VPIT78rZ71s4JDjaBYaB-11" value="пока есть строки в масиве&lt;br&gt;i=0; i&amp;lt; string[].lenght-1;i++" style="shape=hexagon;perimeter=hexagonPerimeter2;whiteSpace=wrap;html=1;fixedSize=1;fillColor=#4B00B5;fontColor=#ffffff;strokeColor=#3700CC;" vertex="1" parent="1">
          <mxGeometry x="520" y="460" width="210" height="50" as="geometry" />
        </mxCell>
        <mxCell id="wJMg5r566ONuuSXWwZkM-9" style="edgeStyle=orthogonalEdgeStyle;rounded=0;orthogonalLoop=1;jettySize=auto;html=1;exitX=0;exitY=0.5;exitDx=0;exitDy=0;entryX=0.625;entryY=0;entryDx=0;entryDy=0;" edge="1" parent="1" source="VPIT78rZ71s4JDjaBYaB-12" target="VPIT78rZ71s4JDjaBYaB-11">
          <mxGeometry relative="1" as="geometry" />
        </mxCell>
        <mxCell id="VPIT78rZ71s4JDjaBYaB-12" value="new string [] &lt;br&gt;+= string i" style="rounded=1;whiteSpace=wrap;html=1;fillColor=#d5e8d4;strokeColor=#82b366;" vertex="1" parent="1">
          <mxGeometry x="670" y="410" width="120" height="30" as="geometry" />
        </mxCell>
        <mxCell id="wJMg5r566ONuuSXWwZkM-8" style="edgeStyle=orthogonalEdgeStyle;rounded=0;orthogonalLoop=1;jettySize=auto;html=1;exitX=1;exitY=0.5;exitDx=0;exitDy=0;entryX=0.375;entryY=0;entryDx=0;entryDy=0;" edge="1" parent="1" source="VPIT78rZ71s4JDjaBYaB-14" target="VPIT78rZ71s4JDjaBYaB-11">
          <mxGeometry relative="1" as="geometry" />
        </mxCell>
        <mxCell id="VPIT78rZ71s4JDjaBYaB-14" value="объявляем &lt;br&gt;new_string [ ]" style="rounded=1;whiteSpace=wrap;html=1;fillColor=#d5e8d4;strokeColor=#82b366;" vertex="1" parent="1">
          <mxGeometry x="390" y="400" width="130" height="40" as="geometry" />
        </mxCell>
        <mxCell id="VPIT78rZ71s4JDjaBYaB-15" value="дебаг просмотр поже будет закоментирован или удалён" style="text;html=1;align=center;verticalAlign=middle;whiteSpace=wrap;rounded=0;fillColor=#eeeeee;strokeColor=#36393d;fontColor=#009900;" vertex="1" parent="1">
          <mxGeometry x="595" y="320" width="180" height="30" as="geometry" />
        </mxCell>
        <mxCell id="VPIT78rZ71s4JDjaBYaB-16" value="" style="verticalLabelPosition=bottom;verticalAlign=top;html=1;shape=process;whiteSpace=wrap;rounded=1;size=0.18421052631578946;arcSize=6;fillColor=#0050ef;fontColor=#ffffff;strokeColor=#001DBC;" vertex="1" parent="1">
          <mxGeometry x="330" y="520" width="190" height="40" as="geometry" />
        </mxCell>
        <mxCell id="VPIT78rZ71s4JDjaBYaB-17" value="принт масив ()" style="rounded=1;whiteSpace=wrap;html=1;absoluteArcSize=1;arcSize=14;strokeWidth=2;fillColor=#4B00B5;strokeColor=#3700CC;fontColor=#ffffff;" vertex="1" parent="1">
          <mxGeometry x="370" y="525" width="110" height="30" as="geometry" />
        </mxCell>
        <mxCell id="wJMg5r566ONuuSXWwZkM-1" style="edgeStyle=orthogonalEdgeStyle;rounded=0;orthogonalLoop=1;jettySize=auto;html=1;exitX=1;exitY=0.5;exitDx=0;exitDy=0;entryX=0.5;entryY=0;entryDx=0;entryDy=0;entryPerimeter=0;fillColor=#008a00;strokeColor=#005700;" edge="1" parent="1" source="VPIT78rZ71s4JDjaBYaB-11" target="VPIT78rZ71s4JDjaBYaB-9">
          <mxGeometry relative="1" as="geometry">
            <Array as="points">
              <mxPoint x="760" y="485" />
              <mxPoint x="760" y="540" />
              <mxPoint x="685" y="540" />
            </Array>
          </mxGeometry>
        </mxCell>
        <mxCell id="wJMg5r566ONuuSXWwZkM-3" style="edgeStyle=orthogonalEdgeStyle;rounded=0;orthogonalLoop=1;jettySize=auto;html=1;exitX=1;exitY=0.5;exitDx=0;exitDy=0;entryX=0.5;entryY=0;entryDx=0;entryDy=0;entryPerimeter=0;" edge="1" parent="1" source="VPIT78rZ71s4JDjaBYaB-1" target="VPIT78rZ71s4JDjaBYaB-5">
          <mxGeometry relative="1" as="geometry">
            <Array as="points">
              <mxPoint x="315" y="180" />
            </Array>
          </mxGeometry>
        </mxCell>
        <mxCell id="wJMg5r566ONuuSXWwZkM-10" style="edgeStyle=orthogonalEdgeStyle;rounded=0;orthogonalLoop=1;jettySize=auto;html=1;exitX=1;exitY=0.5;exitDx=0;exitDy=0;exitPerimeter=0;entryX=0.692;entryY=-0.033;entryDx=0;entryDy=0;entryPerimeter=0;fillColor=#008a00;strokeColor=#005700;" edge="1" parent="1" source="VPIT78rZ71s4JDjaBYaB-9" target="VPIT78rZ71s4JDjaBYaB-12">
          <mxGeometry relative="1" as="geometry">
            <Array as="points">
              <mxPoint x="800" y="600" />
              <mxPoint x="800" y="385" />
              <mxPoint x="753" y="385" />
            </Array>
          </mxGeometry>
        </mxCell>
        <mxCell id="wJMg5r566ONuuSXWwZkM-14" style="edgeStyle=orthogonalEdgeStyle;rounded=0;orthogonalLoop=1;jettySize=auto;html=1;exitX=0;exitY=0.5;exitDx=0;exitDy=0;entryX=0.5;entryY=0;entryDx=0;entryDy=0;entryPerimeter=0;" edge="1" parent="1" source="VPIT78rZ71s4JDjaBYaB-17" target="VPIT78rZ71s4JDjaBYaB-2">
          <mxGeometry relative="1" as="geometry" />
        </mxCell>
        <mxCell id="h9Hyf2PfM9Y7soPXqSBn-1" value="False" style="text;html=1;align=center;verticalAlign=middle;whiteSpace=wrap;rounded=0;" vertex="1" parent="1">
          <mxGeometry x="395" y="230" width="60" height="20" as="geometry" />
        </mxCell>
        <mxCell id="h9Hyf2PfM9Y7soPXqSBn-3" value="True" style="text;html=1;align=center;verticalAlign=middle;whiteSpace=wrap;rounded=0;" vertex="1" parent="1">
          <mxGeometry x="190" y="230" width="50" height="20" as="geometry" />
        </mxCell>
        <mxCell id="h9Hyf2PfM9Y7soPXqSBn-5" value="True" style="text;html=1;align=center;verticalAlign=middle;whiteSpace=wrap;rounded=0;" vertex="1" parent="1">
          <mxGeometry x="730" y="460" width="50" height="20" as="geometry" />
        </mxCell>
        <mxCell id="h9Hyf2PfM9Y7soPXqSBn-7" value="True" style="text;html=1;align=center;verticalAlign=middle;whiteSpace=wrap;rounded=0;" vertex="1" parent="1">
          <mxGeometry x="736" y="578" width="50" height="20" as="geometry" />
        </mxCell>
        <mxCell id="F2_0HfdTOWVP9mP2EpA5-1" value="False" style="text;html=1;align=center;verticalAlign=middle;whiteSpace=wrap;rounded=0;" vertex="1" parent="1">
          <mxGeometry x="455" y="460" width="60" height="20" as="geometry" />
        </mxCell>
        <mxCell id="F2_0HfdTOWVP9mP2EpA5-2" value="False" style="text;html=1;align=center;verticalAlign=middle;whiteSpace=wrap;rounded=0;" vertex="1" parent="1">
          <mxGeometry x="590" y="575" width="60" height="20" as="geometry" />
        </mxCell>
      </root>
    </mxGraphModel>
  </diagram>
  <diagram id="ubweRmP8no64lz9e8a4V" name="принт масив()">
    <mxGraphModel dx="880" dy="508" grid="1" gridSize="10" guides="1" tooltips="1" connect="1" arrows="1" fold="1" page="1" pageScale="1" pageWidth="827" pageHeight="1169" math="0" shadow="0">
      <root>
        <mxCell id="0" />
        <mxCell id="1" parent="0" />
        <mxCell id="Tp-jZZtKT_WTJVPgMayz-1" value="" style="verticalLabelPosition=bottom;verticalAlign=top;html=1;shape=process;whiteSpace=wrap;rounded=1;size=0.18421052631578946;arcSize=6;fillColor=#0050ef;fontColor=#ffffff;strokeColor=#001DBC;" vertex="1" parent="1">
          <mxGeometry x="40" y="40" width="190" height="40" as="geometry" />
        </mxCell>
        <mxCell id="Tp-jZZtKT_WTJVPgMayz-2" value="принт масив (str..[ ])" style="rounded=1;whiteSpace=wrap;html=1;absoluteArcSize=1;arcSize=14;strokeWidth=2;fillColor=#4B00B5;strokeColor=#3700CC;fontColor=#ffffff;" vertex="1" parent="1">
          <mxGeometry x="75" y="45" width="120" height="30" as="geometry" />
        </mxCell>
        <mxCell id="LPsoOfpjbmoPJzpUI1l6-1" value="конец" style="strokeWidth=2;html=1;shape=mxgraph.flowchart.start_2;whiteSpace=wrap;fillColor=#dae8fc;strokeColor=#6c8ebf;" vertex="1" parent="1">
          <mxGeometry x="95" y="290" width="80" height="80" as="geometry" />
        </mxCell>
        <mxCell id="w2T_UpLn9slOb7NkbczJ-1" style="edgeStyle=orthogonalEdgeStyle;rounded=0;orthogonalLoop=1;jettySize=auto;html=1;exitX=1;exitY=0.5;exitDx=0;exitDy=0;exitPerimeter=0;" edge="1" parent="1" source="LPsoOfpjbmoPJzpUI1l6-2" target="NL4ZJdNhLwhmdQkz7Tkt-2">
          <mxGeometry relative="1" as="geometry" />
        </mxCell>
        <mxCell id="LPsoOfpjbmoPJzpUI1l6-2" value="начало" style="strokeWidth=2;html=1;shape=mxgraph.flowchart.start_2;whiteSpace=wrap;fillColor=#dae8fc;strokeColor=#6c8ebf;" vertex="1" parent="1">
          <mxGeometry x="95" y="80" width="80" height="80" as="geometry" />
        </mxCell>
        <mxCell id="NL4ZJdNhLwhmdQkz7Tkt-1" value="пока есть строки в масиве&lt;br&gt;i=0; i&amp;lt; string[ ].lenght-1;i++" style="shape=hexagon;perimeter=hexagonPerimeter2;whiteSpace=wrap;html=1;fixedSize=1;fillColor=#4B00B5;fontColor=#ffffff;strokeColor=#3700CC;" vertex="1" parent="1">
          <mxGeometry x="295" y="240" width="210" height="50" as="geometry" />
        </mxCell>
        <mxCell id="w2T_UpLn9slOb7NkbczJ-2" style="edgeStyle=orthogonalEdgeStyle;rounded=0;orthogonalLoop=1;jettySize=auto;html=1;exitX=1;exitY=0.5;exitDx=0;exitDy=0;entryX=0.5;entryY=0;entryDx=0;entryDy=0;" edge="1" parent="1" source="NL4ZJdNhLwhmdQkz7Tkt-2" target="NL4ZJdNhLwhmdQkz7Tkt-1">
          <mxGeometry relative="1" as="geometry" />
        </mxCell>
        <mxCell id="NL4ZJdNhLwhmdQkz7Tkt-2" value="аргументы&lt;br&gt;string[]" style="rounded=1;whiteSpace=wrap;html=1;fillColor=#d5e8d4;strokeColor=#82b366;" vertex="1" parent="1">
          <mxGeometry x="175" y="150" width="120" height="40" as="geometry" />
        </mxCell>
        <mxCell id="w2T_UpLn9slOb7NkbczJ-5" style="edgeStyle=orthogonalEdgeStyle;rounded=0;orthogonalLoop=1;jettySize=auto;html=1;exitX=0;exitY=0.5;exitDx=0;exitDy=0;exitPerimeter=0;" edge="1" parent="1" source="0LTYGgq1PjG9Ool8c92I-1" target="NL4ZJdNhLwhmdQkz7Tkt-1">
          <mxGeometry relative="1" as="geometry" />
        </mxCell>
        <mxCell id="0LTYGgq1PjG9Ool8c92I-1" value="$ &quot; {string [ i ]} /n&quot;" style="strokeWidth=2;html=1;shape=mxgraph.flowchart.document2;whiteSpace=wrap;size=0.25;fillColor=#ffe6cc;strokeColor=#d79b00;" vertex="1" parent="1">
          <mxGeometry x="490" y="160" width="115" height="50" as="geometry" />
        </mxCell>
        <mxCell id="2ro8tL8mZCT88vZIwAHJ-1" value="True" style="text;html=1;align=center;verticalAlign=middle;whiteSpace=wrap;rounded=0;" vertex="1" parent="1">
          <mxGeometry x="522.5" y="230" width="50" height="30" as="geometry" />
        </mxCell>
        <mxCell id="w2T_UpLn9slOb7NkbczJ-3" style="edgeStyle=orthogonalEdgeStyle;rounded=0;orthogonalLoop=1;jettySize=auto;html=1;exitX=1;exitY=0.5;exitDx=0;exitDy=0;entryX=0.5;entryY=0;entryDx=0;entryDy=0;entryPerimeter=0;fillColor=#d5e8d4;gradientColor=#97d077;strokeColor=#82b366;" edge="1" parent="1" source="NL4ZJdNhLwhmdQkz7Tkt-1" target="0LTYGgq1PjG9Ool8c92I-1">
          <mxGeometry relative="1" as="geometry">
            <Array as="points">
              <mxPoint x="630" y="265" />
              <mxPoint x="630" y="140" />
              <mxPoint x="548" y="140" />
            </Array>
          </mxGeometry>
        </mxCell>
        <mxCell id="w2T_UpLn9slOb7NkbczJ-4" style="edgeStyle=orthogonalEdgeStyle;rounded=0;orthogonalLoop=1;jettySize=auto;html=1;exitX=0;exitY=0.5;exitDx=0;exitDy=0;entryX=0.5;entryY=0;entryDx=0;entryDy=0;entryPerimeter=0;fillColor=#f8cecc;gradientColor=#ea6b66;strokeColor=#b85450;" edge="1" parent="1" source="NL4ZJdNhLwhmdQkz7Tkt-1" target="LPsoOfpjbmoPJzpUI1l6-1">
          <mxGeometry relative="1" as="geometry" />
        </mxCell>
        <mxCell id="v3p_jUji9mNvr77tV_j6-2" value="False" style="text;html=1;align=center;verticalAlign=middle;whiteSpace=wrap;rounded=0;" vertex="1" parent="1">
          <mxGeometry x="230" y="240" width="60" height="20" as="geometry" />
        </mxCell>
      </root>
    </mxGraphModel>
  </diagram>
</mxfile>
